HIERARCHY
ROOT hip
{
  OFFSET 32.1871 79.8687 223.307
  CHANNELS 6 Xposition Yposition Zposition Zrotation Xrotation Yrotation
  JOINT abdomen
  {
    OFFSET 0 20.6881 -0.73152
    CHANNELS 3 Zrotation Xrotation Yrotation
    JOINT chest
    {
      OFFSET 0 11.7043 -0.48768
      CHANNELS 3 Zrotation Xrotation Yrotation
      JOINT neck
      {
        OFFSET 0 22.1894 -2.19456
        CHANNELS 3 Zrotation Xrotation Yrotation
        JOINT head
        {
          OFFSET -0.24384 7.07133 1.2192
          CHANNELS 3 Zrotation Xrotation Yrotation
          JOINT leftEye
          {
            OFFSET 4.14528 8.04674 8.04672
            CHANNELS 3 Zrotation Xrotation Yrotation
            End Site
            {
              OFFSET 1 0 0
            }
          }
          JOINT rightEye
          {
            OFFSET -3.6576 8.04674 8.04672
            CHANNELS 3 Zrotation Xrotation Yrotation
            End Site
            {
              OFFSET 1 0 0
            }
          }
        }
      }
      JOINT rCollar
      {
        OFFSET -2.68224 19.2634 -4.8768
        CHANNELS 3 Zrotation Xrotation Yrotation
        JOINT rShldr
        {
          OFFSET -8.77824 -1.95073 1.46304
          CHANNELS 3 Zrotation Xrotation Yrotation
          JOINT rForeArm
          {
            OFFSET -28.1742 -1.7115 0.48768
            CHANNELS 3 Zrotation Xrotation Yrotation
            JOINT rHand
            {
              OFFSET -22.5879 0.773209 7.07136
              CHANNELS 3 Zrotation Xrotation Yrotation
              JOINT rThumb1
              {
                OFFSET -1.2192 -0.487915 3.41376
                CHANNELS 3 Zrotation Xrotation Yrotation
                JOINT rThumb2
                {
                  OFFSET -3.37035 -0.52449 3.41376
                  CHANNELS 3 Zrotation Xrotation Yrotation
                  End Site
                  {
                    OFFSET -1.78271 -1.18214 1.43049
                  }
                }
              }
              JOINT rIndex1
              {
                OFFSET -7.75947 0.938293 5.60832
                CHANNELS 3 Zrotation Xrotation Yrotation
                JOINT rIndex2
                {
                  OFFSET -2.54057 -0.884171 1.56538
                  CHANNELS 3 Zrotation Xrotation Yrotation
                  End Site
                  {
                    OFFSET -1.62519 -0.234802 1.16502
                  }
                }
              }
              JOINT rMid1
              {
                OFFSET -8.24714 1.18213 3.41376
                CHANNELS 3 Zrotation Xrotation Yrotation
                JOINT rMid2
                {
                  OFFSET -3.10165 -0.590103 1.0647
                  CHANNELS 3 Zrotation Xrotation Yrotation
                  End Site
                  {
                    OFFSET -2.48547 -0.328903 0.83742
                  }
                }
              }
              JOINT rRing1
              {
                OFFSET -8.82822 0.546677 1.51678
                CHANNELS 3 Zrotation Xrotation Yrotation
                JOINT rRing2
                {
                  OFFSET -2.60934 -0.819778 -0.0198488
                  CHANNELS 3 Zrotation Xrotation Yrotation
                  End Site
                  {
                    OFFSET -2.33842 -0.294052 0.168128
                  }
                }
              }
              JOINT rPinky1
              {
                OFFSET -8.27202 -0.0477905 -0.4584
                CHANNELS 3 Zrotation Xrotation Yrotation
                JOINT rPinky2
                {
                  OFFSET -1.82734 -0.647385 -0.700984
                  CHANNELS 3 Zrotation Xrotation Yrotation
                  End Site
                  {
                    OFFSET -1.69225 -0.51767 -0.607171
                  }
                }
              }
            }
          }
        }
      }
      JOINT lCollar
      {
        OFFSET 2.68224 19.2634 -4.8768
        CHANNELS 3 Zrotation Xrotation Yrotation
        JOINT lShldr
        {
          OFFSET 8.77824 -1.95073 1.46304
          CHANNELS 3 Zrotation Xrotation Yrotation
          JOINT lForeArm
          {
            OFFSET 28.1742 -1.7115 0.48768
            CHANNELS 3 Zrotation Xrotation Yrotation
            JOINT lHand
            {
              OFFSET 22.5879 0.773209 7.07136
              CHANNELS 3 Zrotation Xrotation Yrotation
              JOINT lThumb1
              {
                OFFSET 1.2192 -0.487915 3.41376
                CHANNELS 3 Zrotation Xrotation Yrotation
                JOINT lThumb2
                {
                  OFFSET 3.37035 -0.52449 3.41376
                  CHANNELS 3 Zrotation Xrotation Yrotation
                  End Site
                  {
                    OFFSET 1.78271 -1.18214 1.43049
                  }
                }
              }
              JOINT lIndex1
              {
                OFFSET 7.75947 0.938293 5.60832
                CHANNELS 3 Zrotation Xrotation Yrotation
                JOINT lIndex2
                {
                  OFFSET 2.54057 -0.884171 1.56538
                  CHANNELS 3 Zrotation Xrotation Yrotation
                  End Site
                  {
                    OFFSET 1.62519 -0.234802 1.16502
                  }
                }
              }
              JOINT lMid1
              {
                OFFSET 8.24714 1.18213 3.41376
                CHANNELS 3 Zrotation Xrotation Yrotation
                JOINT lMid2
                {
                  OFFSET 3.10165 -0.590103 1.0647
                  CHANNELS 3 Zrotation Xrotation Yrotation
                  End Site
                  {
                    OFFSET 2.48547 -0.328903 0.83742
                  }
                }
              }
              JOINT lRing1
              {
                OFFSET 8.82822 0.546677 1.51678
                CHANNELS 3 Zrotation Xrotation Yrotation
                JOINT lRing2
                {
                  OFFSET 2.60934 -0.819778 -0.0198488
                  CHANNELS 3 Zrotation Xrotation Yrotation
                  End Site
                  {
                    OFFSET 2.33842 -0.294052 0.168128
                  }
                }
              }
              JOINT lPinky1
              {
                OFFSET 8.27202 -0.0477905 -0.4584
                CHANNELS 3 Zrotation Xrotation Yrotation
                JOINT lPinky2
                {
                  OFFSET 1.82734 -0.647385 -0.700984
                  CHANNELS 3 Zrotation Xrotation Yrotation
                  End Site
                  {
                    OFFSET 1.69225 -0.51767 -0.607171
                  }
                }
              }
            }
          }
        }
      }
    }
  }
  JOINT rButtock
  {
    OFFSET -8.77824 4.35084 1.2192
    CHANNELS 3 Zrotation Xrotation Yrotation
    JOINT rThigh
    {
      OFFSET 0 -1.70687 -2.19456
      CHANNELS 3 Zrotation Xrotation Yrotation
      JOINT rShin
      {
        OFFSET 0 -36.8199 0.73152
        CHANNELS 3 Zrotation Xrotation Yrotation
        JOINT rFoot
        {
          OFFSET 0.73152 -45.1104 -5.12064
          CHANNELS 3 Zrotation Xrotation Yrotation
          End Site
          {
            OFFSET -1.1221 -3.69964 12.103
          }
        }
      }
    }
  }
  JOINT lButtock
  {
    OFFSET 8.77824 4.35084 1.2192
    CHANNELS 3 Zrotation Xrotation Yrotation
    JOINT lThigh
    {
      OFFSET 0 -1.70687 -2.19456
      CHANNELS 3 Zrotation Xrotation Yrotation
      JOINT lShin
      {
        OFFSET 0 -36.8199 0.73152
        CHANNELS 3 Zrotation Xrotation Yrotation
        JOINT lFoot
        {
          OFFSET -0.73152 -45.1104 -5.12064
          CHANNELS 3 Zrotation Xrotation Yrotation
          End Site
          {
            OFFSET 1.1221 -3.69964 12.103
          }
        }
      }
    }
  }
}
MOTION
Frames:	6
Frame Time:	0.00833333
50.7179 85.3166 41.3248 -0.825659 0.000779561 0.0151835 1.08606 -0.00408993 0.0298993 0.299446 -0.00345832 0.0518744 -8.90298e-015 1.59028e-015 3.72721e-017 -2.71015e-014 1.59028e-014 1.32005e-016 -0 0 0 -0 0 0 -4.32518e-015 -2.48481e-017 1.49089e-016 -9.34758e-014 -5.59082e-016 1.39149e-015 -1.64251e-012 4.66746e-013 9.54166e-015 -1.87422e-011 -5.9695e-013 1.24042e-013 -4.42238e-011 -2.81348e-013 2.8943e-013 -7.63886e-011 -4.89805e-013 4.99347e-013 -4.42177e-011 -2.80684e-013 2.79889e-013 7.73091 5.47488 0.417314 -4.42249e-011 -2.81678e-013 2.92611e-013 2.90554 0.965183 0.102902 -4.42193e-011 -2.81578e-013 2.87045e-013 10.2786 0.731801 0.0259123 -4.42258e-011 -2.79094e-013 2.95792e-013 2.22167 -0.733487 -0.20892 -4.52102e-015 -2.58187e-017 -4.96962e-017 -9.70197e-014 -7.45443e-016 -7.95139e-016 -1.63406e-012 -5.13063e-013 3.81667e-014 -1.87544e-011 3.81493e-013 8.5875e-014 -4.4226e-011 -2.83435e-013 2.83069e-013 -7.63639e-011 -4.92986e-013 4.98552e-013 -4.42308e-011 -2.82274e-013 2.8943e-013 -7.73091 5.47488 -0.417314 -4.42265e-011 -2.83765e-013 2.79889e-013 -2.90554 0.965183 -0.102902 -4.42282e-011 -2.83467e-013 2.8784e-013 -10.2786 0.731801 -0.0259123 -4.42198e-011 -2.79889e-013 2.8625e-013 -2.22167 -0.733487 0.20892 -2.03217e-016 0 -3.88251e-019 1.33866 -5.65667 -0.11779 0.000448975 4.68993 0.0313085 -0.524597 0.964918 0.0795444 2.03217e-016 0 3.88251e-019 0.313447 -1.92005 0.0118648 0.00934849 -2.07854 0.0772576 0.509891 3.99665 -0.139963 
46.516 83.6296 34.8989 -0.313387 2.99696 30.0117 -0.911395 1.69999 -0.772739 1.8198 0.533473 -0.242132 -4.70467 4.61093 -4.37215 9.83297 -3.61143 -8.38735 -0 0 0 -0 0 0 -3.19762e-014 1.25587e-014 7.3067e-014 21.1705 2.40154 0.865432 -4.88587 -2.37094 7.46031 0.013936 -2.64311 -0.370088 1.12576e-010 -6.56543e-010 3.33543e-010 1.91795e-010 -1.1364e-009 5.77788e-010 1.12581e-010 -6.56543e-010 3.33531e-010 7.73091 5.47488 0.417314 1.12575e-010 -6.56541e-010 3.33543e-010 2.90554 0.965183 0.102902 1.12581e-010 -6.5654e-010 3.3354e-010 10.2786 0.731801 0.0259123 1.12574e-010 -6.5654e-010 3.33547e-010 2.22167 -0.733487 -0.20892 -3.21378e-014 1.25633e-014 7.27991e-014 -20.9248 3.43605 -0.665358 4.65213 -2.20759 -7.16162 -0.0119811 2.43367 -0.340924 -2.17123e-010 -6.05652e-011 5.39918e-011 -3.75187e-010 -1.04436e-010 9.55068e-011 -2.17127e-010 -6.05627e-011 5.39981e-011 -7.73091 5.47488 -0.417314 -2.17123e-010 -6.05651e-011 5.39895e-011 -2.90554 0.965183 -0.102902 -2.17127e-010 -6.05642e-011 5.39955e-011 -10.2786 0.731801 -0.0259123 -2.17117e-010 -6.05607e-011 5.39923e-011 -2.22167 -0.733487 0.20892 -2.03217e-016 0 -3.88251e-019 -1.17822 -10.0833 -1.4719 0.0120891 13.2434 0.18015 -0.877636 -3.12105 -3.06734 2.03217e-016 0 3.88251e-019 0.279476 -5.24502 0.306886 -0.00890387 5.90884 -0.0647472 0.690993 -0.944125 2.1742 
46.4208 83.6327 35.0306 -2.47627 3.38129 61.8072 -2.972 3.49982 -1.62692 3.43019 1.10429 -0.554085 -8.9118 9.40368 -9.08708 19.0997 -7.1854 -17.3551 -0 0 0 -0 0 0 -6.27512e-014 2.97516e-014 1.53241e-013 43.4821 4.9539 1.78974 -9.3856 -4.74337 15.3876 -0.00866307 -5.39571 -0.758204 2.90499e-010 -1.37707e-009 6.96235e-010 4.96251e-010 -2.3836e-009 1.20613e-009 2.90503e-010 -1.37707e-009 6.96221e-010 7.73091 5.47488 0.417314 2.90497e-010 -1.37706e-009 6.96232e-010 2.90554 0.965183 0.102902 2.90505e-010 -1.37706e-009 6.96232e-010 10.2786 0.731801 0.0259123 2.90498e-010 -1.37706e-009 6.96237e-010 2.22167 -0.733487 -0.20892 -6.28787e-014 2.97625e-014 1.529e-013 -42.9582 7.06101 -1.3689 8.97401 -4.42558 -14.7648 0.00704017 5.02465 -0.705987 -4.02845e-010 -1.27756e-010 1.18137e-010 -6.96153e-010 -2.20318e-010 2.08736e-010 -4.02848e-010 -1.27752e-010 1.18143e-010 -7.73091 5.47488 -0.417314 -4.02845e-010 -1.27755e-010 1.18135e-010 -2.90554 0.965183 -0.102902 -4.02852e-010 -1.27754e-010 1.18139e-010 -10.2786 0.731801 -0.0259123 -4.02839e-010 -1.27751e-010 1.18134e-010 -2.22167 -0.733487 0.20892 -2.03217e-016 0 -3.88251e-019 -4.07826 -14.7363 -2.94508 -0.0275964 22.272 0.354085 -1.74467 -7.40603 -6.45375 2.03217e-016 0 3.88251e-019 0.272387 -8.75642 0.614762 0.0158499 14.3534 -0.221024 1.31836 -6.14592 4.64981 
46.4325 83.625 34.987 -4.47771 0.0236274 89.871 -4.76264 5.1042 -2.38646 4.87703 1.60718 -0.83044 -11.9728 13.5065 -13.4527 26.4008 -9.90503 -25.5187 -0 0 0 -0 0 0 -8.72783e-014 3.77257e-014 2.18903e-013 63.2926 7.19801 2.61463 -12.8473 -6.6315 22.5205 -0.0614619 -7.928 -1.11979 4.26176e-010 -1.96907e-009 1.00005e-009 7.28161e-010 -3.40822e-009 1.73237e-009 4.26179e-010 -1.96907e-009 1.00003e-009 7.73091 5.47488 0.417314 4.26173e-010 -1.96906e-009 1.00004e-009 2.90554 0.965183 0.102902 4.26183e-010 -1.96906e-009 1.00005e-009 10.2786 0.731801 0.0259123 4.26175e-010 -1.96906e-009 1.00005e-009 2.22167 -0.733487 -0.20892 -8.73715e-014 3.77416e-014 2.18497e-013 -62.5316 10.3025 -2.02515 12.3358 -6.20978 -21.6019 0.051542 7.29998 -1.0302 -5.62917e-010 -1.81129e-010 1.61409e-010 -9.72833e-010 -3.12322e-010 2.85523e-010 -5.62918e-010 -1.81123e-010 1.61415e-010 -7.73091 5.47488 -0.417314 -5.62916e-010 -1.81128e-010 1.61409e-010 -2.90554 0.965183 -0.102902 -5.62925e-010 -1.81126e-010 1.61411e-010 -10.2786 0.731801 -0.0259123 -5.62911e-010 -1.81122e-010 1.61404e-010 -2.22167 -0.733487 0.20892 -2.03217e-016 0 -3.88251e-019 -6.87236 -18.8958 -4.34777 -0.117429 30.3493 0.537302 -2.94486 -11.1543 -9.52906 2.03217e-016 0 3.88251e-019 0.316283 -11.8937 0.912683 0.0798264 21.8832 -0.374616 2.26267 -10.7506 6.92306 
46.4657 83.6659 34.7695 -4.5976 -4.1896 109.16 -5.98079 6.22382 -2.90127 5.90304 1.94041 -1.01751 -13.6967 16.1962 -16.6214 30.9625 -11.3818 -31.3255 -0 0 0 -0 0 0 -9.61857e-014 2.26527e-014 2.48282e-013 77.0097 8.67797 3.17281 -14.9737 -7.76749 27.5343 -0.122 -9.91061 -1.40705 4.56238e-010 -2.23976e-009 1.15667e-009 7.78703e-010 -3.87641e-009 2.00332e-009 4.56241e-010 -2.23976e-009 1.15666e-009 7.73091 5.47488 0.417314 4.56236e-010 -2.23975e-009 1.15667e-009 2.90554 0.965183 0.102902 4.56246e-010 -2.23975e-009 1.15667e-009 10.2786 0.731801 0.0259123 4.56237e-010 -2.23975e-009 1.15667e-009 2.22167 -0.733487 -0.20892 -9.62442e-014 2.26708e-014 2.47835e-013 -76.1216 12.5905 -2.53657 14.4245 -7.30223 -26.4123 0.0956496 8.78725 -1.24484 -6.58862e-010 -1.99955e-010 1.52501e-010 -1.1388e-009 -3.44635e-010 2.71204e-010 -6.58863e-010 -1.9995e-010 1.52508e-010 -7.73091 5.47488 -0.417314 -6.58861e-010 -1.99954e-010 1.52501e-010 -2.90554 0.965183 -0.102902 -6.58871e-010 -1.99952e-010 1.52502e-010 -10.2786 0.731801 -0.0259123 -6.58856e-010 -1.99949e-010 1.52495e-010 -2.22167 -0.733487 0.20892 -2.03217e-016 0 -3.88251e-019 -8.93725 -21.8566 -5.43457 -0.219773 36.0493 0.691272 -3.99985 -13.6989 -11.6583 2.03217e-016 0 3.88251e-019 0.418175 -14.0967 1.17264 0.151342 27.1269 -0.495018 3.13983 -13.9398 8.55476 
46.3895 83.6897 34.5705 -4.24062 -6.07433 116.758 -6.43047 6.66247 -3.06334 6.33884 2.03252 -1.07757 -14.245 17.1166 -17.9022 32.5523 -11.7115 -33.6649 -0 0 0 -0 0 0 -8.17003e-014 -2.45839e-014 2.22396e-013 82.2572 9.11132 3.33945 -15.7401 -8.15859 29.4929 -0.163183 -11.1173 -1.58368 2.95073e-010 -2.04127e-009 1.09823e-009 5.00208e-010 -3.53189e-009 1.9011e-009 2.95077e-010 -2.04128e-009 1.09822e-009 7.73091 5.47488 0.417314 2.95071e-010 -2.04127e-009 1.09822e-009 2.90554 0.965183 0.102902 2.95082e-010 -2.04127e-009 1.09823e-009 10.2786 0.731801 0.0259123 2.95072e-010 -2.04127e-009 1.09823e-009 2.22167 -0.733487 -0.20892 -8.17178e-014 -2.45675e-014 2.21937e-013 -81.4186 13.5431 -2.84062 15.1838 -7.68486 -28.296 0.110501 9.15702 -1.29881 -6.63379e-010 -1.5408e-010 1.00801e-010 -1.14666e-009 -2.65213e-010 1.81615e-010 -6.6338e-010 -1.54076e-010 1.00808e-010 -7.73091 5.47488 -0.417314 -6.63378e-010 -1.5408e-010 1.00801e-010 -2.90554 0.965183 -0.102902 -6.63387e-010 -1.54078e-010 1.00802e-010 -10.2786 0.731801 -0.0259123 -6.63372e-010 -1.54074e-010 1.00795e-010 -2.22167 -0.733487 0.20892 -2.03217e-016 0 -3.88251e-019 -9.73218 -23.1528 -5.97137 -0.273192 38.3917 0.761505 -4.42025 -14.6606 -12.3774 2.03217e-016 0 3.88251e-019 0.581114 -15.0063 1.37726 0.186064 29.1754 -0.546001 3.52449 -15.1999 9.17725 
